/* XPM */
static const char * drouter_16x16_xpm[] = {
"16 16 108 2",
"  	c None",
". 	c #000000",
"+ 	c #1B1B1B",
"@ 	c #515151",
"# 	c #878787",
"$ 	c #989898",
"% 	c #3A3A3A",
"& 	c #1D1D1D",
"* 	c #575757",
"= 	c #8D8D8D",
"- 	c #B6B6B6",
"; 	c #C7C7C7",
"> 	c #BCBCBC",
", 	c #929FAB",
"' 	c #B5BBC2",
") 	c #636363",
"! 	c #666666",
"~ 	c #CDCDCD",
"{ 	c #BEBEBE",
"] 	c #728CA5",
"^ 	c #52799F",
"/ 	c #477BAC",
"( 	c #578DBD",
"_ 	c #C5D3DF",
": 	c #646464",
"< 	c #6F6F6F",
"[ 	c #B2B2B2",
"} 	c #4174A4",
"| 	c #689CC5",
"1 	c #7BB0D8",
"2 	c #8AC1E8",
"3 	c #87BCE5",
"4 	c #8ABBE3",
"5 	c #CEDAE4",
"6 	c #838383",
"7 	c #121212",
"8 	c #6A6A6A",
"9 	c #699DC6",
"0 	c #99CEF0",
"a 	c #8FC5EB",
"b 	c #8FC2E8",
"c 	c #99C5E8",
"d 	c #A1C8E8",
"e 	c #D5DEE5",
"f 	c #656565",
"g 	c #B0B0B0",
"h 	c #679BC5",
"i 	c #93C9ED",
"j 	c #8DC3E9",
"k 	c #9EC8E9",
"l 	c #ADCFEB",
"m 	c #BAD6ED",
"n 	c #DCE2E7",
"o 	c #B4B4B4",
"p 	c #F2F2F2",
"q 	c #A7A7A7",
"r 	c #6498C3",
"s 	c #8DC4EA",
"t 	c #91C3E8",
"u 	c #AFD1EC",
"v 	c #D1E4F3",
"w 	c #E9F1F9",
"x 	c #E4E5E6",
"y 	c #A1A1A1",
"z 	c #BBBBBB",
"A 	c #797979",
"B 	c #90B4D2",
"C 	c #CBE4F5",
"D 	c #DFE9F0",
"E 	c #E2E2E2",
"F 	c #DADADA",
"G 	c #D4D4D4",
"H 	c #90C091",
"I 	c #474747",
"J 	c #919191",
"K 	c #A9A9A9",
"L 	c #808080",
"M 	c #1A1A1A",
"N 	c #B5B5B5",
"O 	c #D8D8D8",
"P 	c #D0D0D0",
"Q 	c #C8C8C8",
"R 	c #414141",
"S 	c #4A4A4A",
"T 	c #8A8A8A",
"U 	c #C9C9C9",
"V 	c #BABABA",
"W 	c #999999",
"X 	c #9A9A9A",
"Y 	c #939393",
"Z 	c #9C9C9C",
"` 	c #8B8B8B",
" .	c #F7F7F7",
"..	c #D6D6D6",
"+.	c #71AA73",
"@.	c #C5C5C5",
"#.	c #B8B8B8",
"$.	c #A6A6A6",
"%.	c #5F5F5F",
"&.	c #9D9D9D",
"*.	c #D5D5D5",
"=.	c #A6B2A7",
"-.	c #4D4D4D",
";.	c #737373",
">.	c #7D7D7D",
",.	c #3F3F3F",
"'.	c #171717",
").	c #242424",
"                                ",
"                                ",
"                  . .           ",
"          . . + @ # $ %         ",
"    . & * = - ; > , ' )         ",
"    ! ~ { , ] ^ / ( _ : .       ",
"    < [ } | 1 2 3 4 5 : 6 7     ",
"    8 [ 9 0 a b c d e f g { 7   ",
"    ! [ h i j k l m n f o p q   ",
"    ! [ r s t u v w x f y z A . ",
"    ! [ B C D E F G H I J K L . ",
"  M N [ O P Q Q - R S T ~ U 6 . ",
"  8 V W X Y Z ` = . #  ...+.6 . ",
"  + ..@.V > #.$.%.. . &.*.=.-.  ",
"    M ;.J T >.,..     '.)..     ",
"        . . .                   "};
