/* XPM */
static const char * event_comment_16x16_xpm[] = {
"16 16 17 1",
" 	c None",
".	c #182FDB",
"+	c #1930DB",
"@	c #5A6AE5",
"#	c #FFFFFF",
"$	c #5465E4",
"%	c #8B97ED",
"&	c #8390EB",
"*	c #8C98ED",
"=	c #8490EB",
"-	c #243ADC",
";	c #9CA6EF",
">	c #F8F9FE",
",	c #959FEE",
"'	c #2137DC",
")	c #5162E3",
"!	c #4C5EE3",
"     ......     ",
"   ..........   ",
"  ............  ",
" ......+++..... ",
" .....@###$.... ",
".......%#&......",
".......%#&......",
".......%#&......",
".......%#&......",
".......*#=......",
"......-;>,'.....",
" .....)###!.... ",
" .............. ",
"  ............  ",
"   ..........   ",
"     ......     "};
