/* XPM */
static const char * event_fail_16x16_xpm[] = {
"16 16 117 2",
"  	c None",
". 	c #C2481A",
"+ 	c #C5491A",
"@ 	c #C2491A",
"# 	c #C34718",
"$ 	c #C1481A",
"% 	c #C14E1B",
"& 	c #C34B1A",
"* 	c #E3792F",
"= 	c #EF923A",
"- 	c #F69E3E",
"; 	c #E2792F",
"> 	c #C24A1A",
", 	c #C04E1B",
"' 	c #C65B1E",
") 	c #C9561F",
"! 	c #F4983D",
"~ 	c #F7A441",
"{ 	c #CF5B29",
"] 	c #A60705",
"^ 	c #C8561F",
"/ 	c #EF9139",
"( 	c #F4B74A",
"_ 	c #FADE69",
": 	c #A60806",
"< 	c #F7E8E8",
"[ 	c #F9B745",
"} 	c #F8A841",
"| 	c #C24B1A",
"1 	c #C95B1F",
"2 	c #F0A73E",
"3 	c #F4B945",
"4 	c #F9DF75",
"5 	c #A40000",
"6 	c #FFFFFF",
"7 	c #F8CF69",
"8 	c #F3B141",
"9 	c #F0A73D",
"0 	c #C95C1F",
"a 	c #D16924",
"b 	c #ECAE3D",
"c 	c #F3C147",
"d 	c #FBE2A5",
"e 	c #FAE2A5",
"f 	c #F2C046",
"g 	c #EBAE3D",
"h 	c #D56F25",
"i 	c #E9B03C",
"j 	c #F2C657",
"k 	c #FCECC2",
"l 	c #A60808",
"m 	c #FBEBC2",
"n 	c #F0C456",
"o 	c #D66B24",
"p 	c #E8AD3B",
"q 	c #F1C24C",
"r 	c #FBE5AE",
"s 	c #BC4747",
"t 	c #A50404",
"u 	c #FAE5AD",
"v 	c #EFC04B",
"w 	c #E9AE3B",
"x 	c #D55F20",
"y 	c #E5A238",
"z 	c #EDB33F",
"A 	c #F7D376",
"B 	c #A60807",
"C 	c #F4D074",
"D 	c #EAAF3B",
"E 	c #E5A338",
"F 	c #D24C1A",
"G 	c #E39434",
"H 	c #E99B39",
"I 	c #F2B842",
"J 	c #A60706",
"K 	c #EEB43E",
"L 	c #E49735",
"M 	c #E39433",
"N 	c #CE3311",
"O 	c #E38431",
"P 	c #E67F33",
"Q 	c #EC973A",
"R 	c #C95926",
"S 	c #CA5825",
"T 	c #E99335",
"U 	c #E27C2F",
"V 	c #E38331",
"W 	c #CC1407",
"X 	c #E46C2D",
"Y 	c #ED8636",
"Z 	c #F2953A",
"` 	c #F19E3C",
" .	c #EFA23C",
"..	c #F0A23C",
"+.	c #F09C3A",
"@.	c #F09237",
"#.	c #EC8333",
"$.	c #030303",
"%.	c #B70000",
"&.	c #CD0C04",
"*.	c #D3280E",
"=.	c #D73B14",
"-.	c #DA4818",
";.	c #DC4F1B",
">.	c #CE0D04",
",.	c #000000",
"'.	c #616565",
").	c #7E7F7D",
"!.	c #6F706F",
"~.	c #676860",
"{.	c #676857",
"].	c #72715B",
"^.	c #75755F",
"/.	c #737464",
"(.	c #6F716A",
"_.	c #555758",
":.	c #3E3E3E",
"                                ",
"          . + @ @ # $           ",
"      % & * = - - = ; > ,       ",
"    ' ) ! ~ { ] ] { ~ ! ^ '     ",
"    > / ( _ : < < ] [ } / |     ",
"    1 2 3 4 5 6 6 5 7 8 9 0     ",
"    a b c d 5 6 6 5 e f g a     ",
"    h i j k l < < l m n i h     ",
"    o p q r s t t s u v w o     ",
"    x y z A B < < B C D E x     ",
"    F G H I J < < J K L M F     ",
"    N O P Q R ] ] S T U V N     ",
"    W X Y Z `  ...+.@.#.X W     ",
"  $.%.&.*.=.-.;.;.-.=.*.>.%.,.  ",
"  ,.'.).!.~.{.].^./.(.'._.:.,.  ",
"  $.,.,.,.,.,.,.,.,.,.,.,.,.,.  "};
