/* XPM */
static const char * event_snapshot_16x16_xpm[] = {
"16 16 126 2",
"  	c None",
". 	c #F2ECB4",
"+ 	c #F1ECB2",
"@ 	c #E2E6E2",
"# 	c #EFDC3C",
"$ 	c #EFDC39",
"% 	c #D9DBD8",
"& 	c #E3E5E0",
"* 	c #F6A555",
"= 	c #F5BF88",
"- 	c #E7ECE9",
"; 	c #E1E0CB",
"> 	c #F2DE3A",
", 	c #D5D7C0",
"' 	c #E3E4E3",
") 	c #D5EF9C",
"! 	c #C7EE70",
"~ 	c #C4C7C2",
"{ 	c #F5B97E",
"] 	c #F57900",
"^ 	c #FAA451",
"/ 	c #FBF0D2",
"( 	c #F1DE3A",
"_ 	c #F2DD39",
": 	c #F5F6D4",
"< 	c #CBF371",
"[ 	c #AEEA28",
"} 	c #CFEC8E",
"| 	c #E8EAE7",
"1 	c #FA9F47",
"2 	c #F68F29",
"3 	c #F7AA53",
"4 	c #F3DD4E",
"5 	c #F0E24F",
"6 	c #CDF06D",
"7 	c #BBED4B",
"8 	c #C7F267",
"9 	c #D6D7D5",
"0 	c #DACEC9",
"a 	c #FADFD4",
"b 	c #F7A053",
"c 	c #F79E46",
"d 	c #F5CA4F",
"e 	c #E3E85A",
"f 	c #C5F167",
"g 	c #C5EF6C",
"h 	c #E8F7D4",
"i 	c #BDC5B4",
"j 	c #F0BFBE",
"k 	c #F05D5D",
"l 	c #F35C5C",
"m 	c #F25B5C",
"n 	c #F46E69",
"o 	c #F68360",
"p 	c #FEB066",
"q 	c #D1F579",
"r 	c #A9E35C",
"s 	c #98DA54",
"t 	c #88D441",
"u 	c #89D542",
"v 	c #87D141",
"w 	c #C6E0AE",
"x 	c #EEB4B3",
"y 	c #EF5555",
"z 	c #F35959",
"A 	c #F35858",
"B 	c #EE6B6D",
"C 	c #D67683",
"D 	c #B392AF",
"E 	c #A4C7D4",
"F 	c #97CE86",
"G 	c #94D75A",
"H 	c #86D43D",
"I 	c #87D53E",
"J 	c #81CF38",
"K 	c #BDDCA0",
"L 	c #CFC0BD",
"M 	c #F1DADD",
"N 	c #A886A1",
"O 	c #9A81A1",
"P 	c #848FB5",
"Q 	c #83A4CD",
"R 	c #9BB9E0",
"S 	c #9EC0D3",
"T 	c #E1EFDF",
"U 	c #B3BDAA",
"V 	c #A8AAA8",
"W 	c #DADCD8",
"X 	c #A187A6",
"Y 	c #8C6D91",
"Z 	c #9D88A7",
"` 	c #7493BE",
" .	c #7496C1",
"..	c #9BBADC",
"+.	c #88AED6",
"@.	c #9FBEE1",
"#.	c #CDCECB",
"$.	c #B6A5B8",
"%.	c #75517B",
"&.	c #9D81A1",
"*.	c #DEE0EA",
"=.	c #6288B9",
"-.	c #6187B9",
";.	c #DDE6F0",
">.	c #9CBCDF",
",.	c #719ECF",
"'.	c #B0C6DB",
").	c #C7C9C5",
"!.	c #9F86A2",
"~.	c #B09DB2",
"{.	c #CFD1CE",
"].	c #B2B7B9",
"^.	c #6389BA",
"/.	c #6288BA",
"(.	c #AAAFB1",
"_.	c #CECFCD",
":.	c #ACC3DA",
"<.	c #9BBADA",
"[.	c #ACAEAA",
"}.	c #B2B4B0",
"|.	c #5E84B3",
"1.	c #5C81B2",
"2.	c #A2A4A1",
"3.	c #AAABA8",
"4.	c #B1BFD0",
"5.	c #AEBDCE",
"                                ",
"              . +               ",
"      @       # $       %       ",
"    & * = - ; > > , ' ) ! ~     ",
"      { ] ^ / ( _ : < [ }       ",
"      | 1 2 3 4 5 6 7 8 9       ",
"      0 a b c d e f g h i       ",
"  j k l m n o p q r s t u v w   ",
"  x y z A B C D E F G H I J K   ",
"      L M N O P Q R S T U V     ",
"      W X Y Z `  ...+.@.#.      ",
"      $.%.&.*.=.-.;.>.,.'.      ",
"    ).!.~.{.].^./.(._.:.<.[.    ",
"      }.      |.1.2.    3.      ",
"              4.5.              ",
"                                "};
