/* XPM */
static const char * greenx_xpm[] = {
"16 16 29 1",
" 	c None",
".	c #144E19",
"+	c #0D0D0D",
"@	c #020202",
"#	c #050505",
"$	c #6EC15E",
"%	c #68D95B",
"&	c #19571E",
"*	c #173112",
"=	c #3FAD32",
"-	c #090504",
";	c #4A8F2F",
">	c #23941E",
",	c #120502",
"'	c #0E0B09",
")	c #28BA22",
"!	c #1D0F0C",
"~	c #35BD25",
"{	c #3EA832",
"]	c #10250F",
"^	c #1B0704",
"/	c #090909",
"(	c #010101",
"_	c #200B08",
":	c #080505",
"<	c #240D09",
"[	c #11160A",
"}	c #180906",
"|	c #172B10",
"                ",
"  ..+       @#  ",
" .$%&+     *$=- ",
" .%%;&    *%=>, ",
" ';));&  !%~{&  ",
"  ];)))*#%~>]   ",
"   ];))){{>]    ",
"    .;)){)]@    ",
"    @&$))))]    ",
"    ^%))))))]   ",
"   .%{=/.%)))]  ",
" (&%~>_  .%)){: ",
" *%~><    .%))* ",
" [>>}     +.%{* ",
"  *|       +**  ",
"                "};
